<svg version="1.1" xmlns="http://www.w3.org/2000/svg" style="display: block;" viewBox="0 0 2048 2048" width="1024" height="1024" preserveAspectRatio="none">
<path transform="translate(0,0)" fill="rgb(255,255,255)" d="M 0 0 L 2048 0 L 2048 2048 L 0 2048 L 0 0 z"/>
<path transform="translate(0,0)" fill="rgb(25,25,25)" d="M 1582.78 510.467 C 1632.95 509.506 1688.94 516.45 1734.43 538.232 C 1771.7 556.075 1803.14 584.622 1816.9 624.384 C 1835.61 678.471 1820.98 738.4 1796.47 788.085 C 1700.74 982.203 1382.79 1171.02 1190.98 1264.97 C 1098.17 1310.55 1002.55 1350.15 904.687 1383.53 C 743.826 1437.52 479.311 1503.32 316.45 1427.25 C 281.649 1411 249.63 1381.18 237.435 1343.79 C 221.832 1295.95 237.727 1235.42 260.618 1191.71 C 319.295 1079.68 424.709 984.983 526.06 911.447 C 531.554 907.461 573.58 877.699 577.964 876.254 C 577.391 877.219 522.705 923.639 516.547 929.634 C 513.526 932.149 510.562 934.731 507.657 937.378 C 433.189 1004.88 307.962 1139.67 303.206 1243.46 C 301.977 1270.3 309.106 1295.67 327.483 1315.73 C 364.96 1356.62 430.497 1364.55 482.907 1366.86 C 535.711 1369.2 588.736 1363.4 640.828 1355.17 C 922.187 1310.73 1262.62 1153.23 1490.45 983.461 C 1523.49 958.836 1556.2 933.349 1586.62 905.509 C 1648.45 848.929 1745.14 752.547 1748.51 663.953 C 1749.57 636.264 1741.12 610.087 1722.02 589.755 C 1701.23 567.619 1671.61 555.468 1642.84 547.712 C 1546.34 521.69 1440.11 535.427 1343.26 552.566 C 1325.6 555.736 1308.01 559.274 1290.5 563.177 C 1285.54 564.282 1263.24 570.125 1260.34 570.03 C 1271.41 564.03 1295.31 558.918 1308.12 555.101 C 1400.62 527.553 1486.44 512.269 1582.78 510.467 z"/>
<path transform="translate(0,0)" fill="rgb(196,196,198)" d="M 761.674 1340.33 L 763.095 1340.41 L 763.569 1341.1 C 749.254 1346.06 733.095 1349.97 718.331 1353.86 L 716.82 1353.31 C 724.089 1347.98 751.689 1342.44 761.674 1340.33 z"/>
<path transform="translate(0,0)" fill="rgb(196,196,198)" d="M 503.343 1373.46 C 510.337 1372.74 534.152 1373.91 540.385 1376.12 C 532.493 1377.79 510.519 1377.18 503.343 1373.46 z"/>
<path transform="translate(0,0)" fill="rgb(98,99,100)" d="M 1034.95 1250.21 L 1036.94 1250.3 C 1033.48 1253.8 1015.26 1258.01 1009.36 1259.61 L 1008.05 1259.6 L 1007.94 1258.73 C 1013.19 1255.63 1028.54 1251.63 1034.95 1250.21 z"/>
<path transform="translate(0,0)" fill="rgb(255,255,255)" d="M 1759.47 655.754 L 1760.54 656.86 C 1762.09 662.841 1762.36 665.93 1759.5 671.38 L 1758.14 670.939 C 1756.76 668.542 1758.93 659.667 1759.47 655.754 z"/>
<path transform="translate(0,0)" fill="rgb(25,25,25)" d="M 984.09 641.054 L 1104.79 641.035 L 1059.7 844.628 C 1050.22 887.133 1040.72 931.582 1030.13 973.664 C 1055.06 944.066 1086.47 910.862 1112.64 881.388 C 1184.46 801.469 1255.73 721.062 1326.45 640.172 C 1328.56 661.013 1336.01 694.35 1340.07 715.943 L 1367.66 865.249 C 1372.74 891.966 1381.65 931.778 1384.59 958.069 C 1402.69 924.006 1431.85 879.965 1452.74 846.432 C 1494.37 779.619 1535.51 712.51 1576.18 645.11 C 1619.88 644.98 1666.15 644.278 1709.67 645.812 C 1694.59 668.991 1677.4 699.959 1663.17 724.225 L 1584.82 856.895 C 1577.19 868.139 1571.92 879.952 1564.3 891.543 L 1565.55 887.827 C 1570.65 872.452 1579.26 859.871 1583.35 845.107 C 1575.02 854.349 1564.68 865.49 1556.92 875.009 C 1542.91 892.195 1538.27 900.593 1521.48 914.84 C 1531.72 910.09 1544.53 905.199 1555.14 900.874 C 1525.78 924.645 1497.27 948.349 1467.15 971.211 C 1407.87 1016.21 1349.51 1052.13 1285.55 1089.82 C 1281.17 1073.93 1276.08 1044.77 1272.62 1027.96 L 1246.38 898.019 C 1224.45 924.575 1194.66 955.331 1171.18 981.37 L 1018.39 1149.44 C 1000.95 1168.3 983.777 1188.34 966.041 1206.85 C 958.936 1214.26 934.872 1220.46 924.032 1224.03 L 846.112 1249.98 L 939.486 847.337 L 966.433 731.049 C 970.006 715.769 976.487 684.547 981.295 671.287 L 982.48 670.997 C 986.678 674.951 995.158 674.684 1001.41 675.2 C 997.697 671.011 991.56 662.164 988.729 657.285 C 984.55 650.081 982.202 648.825 984.09 641.054 z"/>
<path transform="translate(0,0)" fill="rgb(25,25,25)" d="M 733.626 640.418 L 935.02 641.092 C 939.929 645.384 950.629 649.622 957.015 652.471 C 956.309 658.86 952.657 671.642 950.932 678.247 L 939.816 720.898 L 904.755 853.087 L 859.453 1024.06 C 852.848 1049.11 841.743 1096.56 833.047 1118.43 C 822.616 1144.54 806.911 1168.21 786.914 1187.97 C 741.382 1232.94 681.277 1249.96 618.906 1248.63 C 605.63 1248.34 592.084 1248.53 578.772 1248.48 L 473.218 1248.18 L 363.587 1248.05 C 389.691 1208.14 415.356 1167.94 440.579 1127.47 C 481.782 1129.08 526.272 1127.05 567.86 1127.83 C 593.356 1128.3 623.28 1128.18 648.722 1126.89 C 660.861 1125.57 671.462 1121.22 681.817 1115.37 C 719.604 1094.05 721.705 1053.19 732.318 1015.28 C 742.482 978.024 752.146 940.637 761.307 903.126 L 799.338 754.711 C 760.123 754.186 720.608 754.473 681.346 754.328 C 698.259 716.468 716.498 678.441 733.626 640.418 z"/>
<path transform="translate(0,0)" fill="rgb(196,196,198)" d="M 717.579 702.669 C 714.064 714.882 710.789 719.487 704.194 730.171 L 702.47 729.525 C 707.089 720.791 712.06 710.732 717.579 702.669 z"/>
<path transform="translate(0,0)" fill="rgb(50,49,50)" d="M 704.194 730.171 C 701.248 734.514 699.564 737.84 695.194 740.669 L 694.173 740.183 C 695.659 735.865 699.201 732.919 702.47 729.525 L 704.194 730.171 z"/>
<path transform="translate(0,0)" fill="rgb(25,25,25)" d="M 1317.02 520.332 C 1450.62 484.889 1646.69 439.227 1775.07 511.254 C 1816.13 533.876 1846.51 571.11 1858.04 616.633 C 1876.78 690.683 1853.03 773.231 1812.19 836.536 C 1724.8 972.01 1584.57 1075.21 1452.26 1162.3 C 1428.8 1211.39 1400.4 1260.8 1376.05 1309.63 C 1366.57 1328.63 1353.97 1349.91 1345.73 1369 C 1343.86 1353.57 1337.06 1325.52 1333.31 1310.1 C 1327.78 1287.33 1322.4 1264.54 1317.16 1241.71 C 1288.48 1257.25 1257.54 1274.53 1228.36 1289.07 C 1031.28 1386.98 821.16 1469.13 601.716 1497.38 C 512.449 1508.87 425.561 1510.39 338.691 1485.39 C 225.589 1452.84 161.192 1362.88 198.827 1245.77 C 238.163 1123.37 338.288 1026.64 436.025 947.799 C 448.2 938.122 487.202 907.073 498.536 900.988 L 498.871 901.743 C 476.877 920.54 453.922 936.771 431.576 957.289 C 336.279 1045.88 226.262 1153.58 209.432 1289.07 C 204.701 1327.16 216.612 1373.43 242.526 1401.58 C 340.837 1508.38 541.043 1491.4 668.437 1468.44 C 926.953 1421.47 1171.91 1312.11 1396.67 1177.74 C 1483.18 1126.02 1562.49 1071.06 1642.69 1003.34 C 1755.58 908.022 1926.7 714.179 1806.18 562.272 C 1767.21 513.157 1679.95 493.048 1619.67 490.354 C 1539.57 486.515 1456.65 495.983 1377.81 509.715 C 1365.66 511.831 1327.59 518.908 1316.88 522.452 L 1317.02 520.332 z"/>
<path transform="translate(0,0)" fill="rgb(196,196,198)" d="M 528.042 879.097 L 528.493 879.503 C 527.102 882.018 517.039 888.961 514.177 891.074 L 513.413 890.298 C 515.372 887.224 524.452 881.571 528.042 879.097 z"/>
<path transform="translate(0,0)" fill="rgb(135,135,136)" d="M 1316.88 522.452 C 1312.04 523.573 1306.36 525.308 1301.44 525.046 L 1302.61 525.34 L 1301.77 525.366 C 1306.75 522.331 1311.14 521.872 1317.02 520.332 L 1316.88 522.452 z"/>
</svg>